<?xml version="1.0" encoding="utf-8" standalone="no"?>
<!DOCTYPE svg PUBLIC "-//W3C//DTD SVG 1.1//EN"
  "http://www.w3.org/Graphics/SVG/1.1/DTD/svg11.dtd">
<svg xmlns:xlink="http://www.w3.org/1999/xlink" width="711.56475pt" height="424.289062pt" viewBox="0 0 711.56475 424.289062" xmlns="http://www.w3.org/2000/svg" version="1.1">
 <metadata>
  <rdf:RDF xmlns:dc="http://purl.org/dc/elements/1.1/" xmlns:cc="http://creativecommons.org/ns#" xmlns:rdf="http://www.w3.org/1999/02/22-rdf-syntax-ns#">
   <cc:Work>
    <dc:type rdf:resource="http://purl.org/dc/dcmitype/StillImage"/>
    <dc:date>2026-02-28T16:08:21.898475</dc:date>
    <dc:format>image/svg+xml</dc:format>
    <dc:creator>
     <cc:Agent>
      <dc:title>Matplotlib v3.10.8, https://matplotlib.org/</dc:title>
     </cc:Agent>
    </dc:creator>
   </cc:Work>
  </rdf:RDF>
 </metadata>
 <defs>
  <style type="text/css">*{stroke-linejoin: round; stroke-linecap: butt}</style>
 </defs>
 <g id="figure_1">
  <g id="patch_1">
   <path d="M -0 424.289062
L 711.56475 424.289062
L 711.56475 0
L -0 0
z
" style="fill: #ffffff"/>
  </g>
  <g id="axes_1">
   <g id="patch_2">
    <path d="M 43.074375 385.730312
L 574.544375 385.730312
L 574.544375 23.391562
L 43.074375 23.391562
z
" style="fill: #ffffff"/>
   </g>
   <g id="matplotlib.axis_1">
    <g id="xtick_1">
     <g id="text_1">
      <!-- AUC_PRC -->
      <g style="fill: #262626" transform="translate(57.141987 400.01) scale(0.1 -0.1)">
       <defs>
        <path id="ArialMT-41" d="M -9 0
L 1750 4581
L 2403 4581
L 4278 0
L 3588 0
L 3053 1388
L 1138 1388
L 634 0
L -9 0
z
M 1313 1881
L 2866 1881
L 2388 3150
Q 2169 3728 2063 4100
Q 1975 3659 1816 3225
L 1313 1881
z
" transform="scale(0.015625)"/>
        <path id="ArialMT-55" d="M 3500 4581
L 4106 4581
L 4106 1934
Q 4106 1244 3950 837
Q 3794 431 3386 176
Q 2978 -78 2316 -78
Q 1672 -78 1262 144
Q 853 366 678 786
Q 503 1206 503 1934
L 503 4581
L 1109 4581
L 1109 1938
Q 1109 1341 1220 1058
Q 1331 775 1601 622
Q 1872 469 2263 469
Q 2931 469 3215 772
Q 3500 1075 3500 1938
L 3500 4581
z
" transform="scale(0.015625)"/>
        <path id="ArialMT-43" d="M 3763 1606
L 4369 1453
Q 4178 706 3683 314
Q 3188 -78 2472 -78
Q 1731 -78 1267 223
Q 803 525 561 1097
Q 319 1669 319 2325
Q 319 3041 592 3573
Q 866 4106 1370 4382
Q 1875 4659 2481 4659
Q 3169 4659 3637 4309
Q 4106 3959 4291 3325
L 3694 3184
Q 3534 3684 3231 3912
Q 2928 4141 2469 4141
Q 1941 4141 1586 3887
Q 1231 3634 1087 3207
Q 944 2781 944 2328
Q 944 1744 1114 1308
Q 1284 872 1643 656
Q 2003 441 2422 441
Q 2931 441 3284 734
Q 3638 1028 3763 1606
z
" transform="scale(0.015625)"/>
        <path id="ArialMT-5f" d="M -97 -1272
L -97 -866
L 3631 -866
L 3631 -1272
L -97 -1272
z
" transform="scale(0.015625)"/>
        <path id="ArialMT-50" d="M 494 0
L 494 4581
L 2222 4581
Q 2678 4581 2919 4538
Q 3256 4481 3484 4323
Q 3713 4166 3852 3881
Q 3991 3597 3991 3256
Q 3991 2672 3619 2267
Q 3247 1863 2275 1863
L 1100 1863
L 1100 0
L 494 0
z
M 1100 2403
L 2284 2403
Q 2872 2403 3119 2622
Q 3366 2841 3366 3238
Q 3366 3525 3220 3729
Q 3075 3934 2838 4000
Q 2684 4041 2272 4041
L 1100 4041
L 1100 2403
z
" transform="scale(0.015625)"/>
        <path id="ArialMT-52" d="M 503 0
L 503 4581
L 2534 4581
Q 3147 4581 3465 4457
Q 3784 4334 3975 4021
Q 4166 3709 4166 3331
Q 4166 2844 3850 2509
Q 3534 2175 2875 2084
Q 3116 1969 3241 1856
Q 3506 1613 3744 1247
L 4541 0
L 3778 0
L 3172 953
Q 2906 1366 2734 1584
Q 2563 1803 2427 1890
Q 2291 1978 2150 2013
Q 2047 2034 1813 2034
L 1109 2034
L 1109 0
L 503 0
z
M 1109 2559
L 2413 2559
Q 2828 2559 3062 2645
Q 3297 2731 3419 2920
Q 3541 3109 3541 3331
Q 3541 3656 3305 3865
Q 3069 4075 2559 4075
L 1109 4075
L 1109 2559
z
" transform="scale(0.015625)"/>
       </defs>
       <use xlink:href="#ArialMT-41"/>
       <use xlink:href="#ArialMT-55" transform="translate(66.699219 0)"/>
       <use xlink:href="#ArialMT-43" transform="translate(138.916016 0)"/>
       <use xlink:href="#ArialMT-5f" transform="translate(211.132812 0)"/>
       <use xlink:href="#ArialMT-50" transform="translate(266.748047 0)"/>
       <use xlink:href="#ArialMT-52" transform="translate(333.447266 0)"/>
       <use xlink:href="#ArialMT-43" transform="translate(405.664062 0)"/>
      </g>
     </g>
    </g>
    <g id="xtick_2">
     <g id="text_2">
      <!-- AUC_ROC -->
      <g style="fill: #262626" transform="translate(132.512366 400.01625) scale(0.1 -0.1)">
       <defs>
        <path id="ArialMT-4f" d="M 309 2231
Q 309 3372 921 4017
Q 1534 4663 2503 4663
Q 3138 4663 3647 4359
Q 4156 4056 4423 3514
Q 4691 2972 4691 2284
Q 4691 1588 4409 1038
Q 4128 488 3612 205
Q 3097 -78 2500 -78
Q 1853 -78 1343 234
Q 834 547 571 1087
Q 309 1628 309 2231
z
M 934 2222
Q 934 1394 1379 917
Q 1825 441 2497 441
Q 3181 441 3623 922
Q 4066 1403 4066 2288
Q 4066 2847 3877 3264
Q 3688 3681 3323 3911
Q 2959 4141 2506 4141
Q 1863 4141 1398 3698
Q 934 3256 934 2222
z
" transform="scale(0.015625)"/>
       </defs>
       <use xlink:href="#ArialMT-41"/>
       <use xlink:href="#ArialMT-55" transform="translate(66.699219 0)"/>
       <use xlink:href="#ArialMT-43" transform="translate(138.916016 0)"/>
       <use xlink:href="#ArialMT-5f" transform="translate(211.132812 0)"/>
       <use xlink:href="#ArialMT-52" transform="translate(266.748047 0)"/>
       <use xlink:href="#ArialMT-4f" transform="translate(338.964844 0)"/>
       <use xlink:href="#ArialMT-43" transform="translate(416.748047 0)"/>
      </g>
     </g>
    </g>
    <g id="xtick_3">
     <g id="text_3">
      <!-- F1 -->
      <g style="fill: #262626" transform="translate(227.050714 399.888125) scale(0.1 -0.1)">
       <defs>
        <path id="ArialMT-46" d="M 525 0
L 525 4581
L 3616 4581
L 3616 4041
L 1131 4041
L 1131 2622
L 3281 2622
L 3281 2081
L 1131 2081
L 1131 0
L 525 0
z
" transform="scale(0.015625)"/>
        <path id="ArialMT-31" d="M 2384 0
L 1822 0
L 1822 3584
Q 1619 3391 1289 3197
Q 959 3003 697 2906
L 697 3450
Q 1169 3672 1522 3987
Q 1875 4303 2022 4600
L 2384 4600
L 2384 0
z
" transform="scale(0.015625)"/>
       </defs>
       <use xlink:href="#ArialMT-46"/>
       <use xlink:href="#ArialMT-31" transform="translate(61.083984 0)"/>
      </g>
     </g>
    </g>
    <g id="xtick_4">
     <g id="text_4">
      <!-- JaccardSimilarity -->
      <g style="fill: #262626" transform="translate(271.025 400.01) scale(0.1 -0.1)">
       <defs>
        <path id="ArialMT-4a" d="M 184 1300
L 731 1375
Q 753 850 928 656
Q 1103 463 1413 463
Q 1641 463 1806 567
Q 1972 672 2034 851
Q 2097 1031 2097 1425
L 2097 4581
L 2703 4581
L 2703 1459
Q 2703 884 2564 568
Q 2425 253 2123 87
Q 1822 -78 1416 -78
Q 813 -78 492 269
Q 172 616 184 1300
z
" transform="scale(0.015625)"/>
        <path id="ArialMT-61" d="M 2588 409
Q 2275 144 1986 34
Q 1697 -75 1366 -75
Q 819 -75 525 192
Q 231 459 231 875
Q 231 1119 342 1320
Q 453 1522 633 1644
Q 813 1766 1038 1828
Q 1203 1872 1538 1913
Q 2219 1994 2541 2106
Q 2544 2222 2544 2253
Q 2544 2597 2384 2738
Q 2169 2928 1744 2928
Q 1347 2928 1158 2789
Q 969 2650 878 2297
L 328 2372
Q 403 2725 575 2942
Q 747 3159 1072 3276
Q 1397 3394 1825 3394
Q 2250 3394 2515 3294
Q 2781 3194 2906 3042
Q 3031 2891 3081 2659
Q 3109 2516 3109 2141
L 3109 1391
Q 3109 606 3145 398
Q 3181 191 3288 0
L 2700 0
Q 2613 175 2588 409
z
M 2541 1666
Q 2234 1541 1622 1453
Q 1275 1403 1131 1340
Q 988 1278 909 1158
Q 831 1038 831 891
Q 831 666 1001 516
Q 1172 366 1500 366
Q 1825 366 2078 508
Q 2331 650 2450 897
Q 2541 1088 2541 1459
L 2541 1666
z
" transform="scale(0.015625)"/>
        <path id="ArialMT-63" d="M 2588 1216
L 3141 1144
Q 3050 572 2676 248
Q 2303 -75 1759 -75
Q 1078 -75 664 370
Q 250 816 250 1647
Q 250 2184 428 2587
Q 606 2991 970 3192
Q 1334 3394 1763 3394
Q 2303 3394 2647 3120
Q 2991 2847 3088 2344
L 2541 2259
Q 2463 2594 2264 2762
Q 2066 2931 1784 2931
Q 1359 2931 1093 2626
Q 828 2322 828 1663
Q 828 994 1084 691
Q 1341 388 1753 388
Q 2084 388 2306 591
Q 2528 794 2588 1216
z
" transform="scale(0.015625)"/>
        <path id="ArialMT-72" d="M 416 0
L 416 3319
L 922 3319
L 922 2816
Q 1116 3169 1280 3281
Q 1444 3394 1641 3394
Q 1925 3394 2219 3213
L 2025 2691
Q 1819 2813 1613 2813
Q 1428 2813 1281 2702
Q 1134 2591 1072 2394
Q 978 2094 978 1738
L 978 0
L 416 0
z
" transform="scale(0.015625)"/>
        <path id="ArialMT-64" d="M 2575 0
L 2575 419
Q 2259 -75 1647 -75
Q 1250 -75 917 144
Q 584 363 401 755
Q 219 1147 219 1656
Q 219 2153 384 2558
Q 550 2963 881 3178
Q 1213 3394 1622 3394
Q 1922 3394 2156 3267
Q 2391 3141 2538 2938
L 2538 4581
L 3097 4581
L 3097 0
L 2575 0
z
M 797 1656
Q 797 1019 1065 703
Q 1334 388 1700 388
Q 2069 388 2326 689
Q 2584 991 2584 1609
Q 2584 2291 2321 2609
Q 2059 2928 1675 2928
Q 1300 2928 1048 2622
Q 797 2316 797 1656
z
" transform="scale(0.015625)"/>
        <path id="ArialMT-53" d="M 288 1472
L 859 1522
Q 900 1178 1048 958
Q 1197 738 1509 602
Q 1822 466 2213 466
Q 2559 466 2825 569
Q 3091 672 3220 851
Q 3350 1031 3350 1244
Q 3350 1459 3225 1620
Q 3100 1781 2813 1891
Q 2628 1963 1997 2114
Q 1366 2266 1113 2400
Q 784 2572 623 2826
Q 463 3081 463 3397
Q 463 3744 659 4045
Q 856 4347 1234 4503
Q 1613 4659 2075 4659
Q 2584 4659 2973 4495
Q 3363 4331 3572 4012
Q 3781 3694 3797 3291
L 3216 3247
Q 3169 3681 2898 3903
Q 2628 4125 2100 4125
Q 1550 4125 1298 3923
Q 1047 3722 1047 3438
Q 1047 3191 1225 3031
Q 1400 2872 2139 2705
Q 2878 2538 3153 2413
Q 3553 2228 3743 1945
Q 3934 1663 3934 1294
Q 3934 928 3725 604
Q 3516 281 3123 101
Q 2731 -78 2241 -78
Q 1619 -78 1198 103
Q 778 284 539 648
Q 300 1013 288 1472
z
" transform="scale(0.015625)"/>
        <path id="ArialMT-69" d="M 425 3934
L 425 4581
L 988 4581
L 988 3934
L 425 3934
z
M 425 0
L 425 3319
L 988 3319
L 988 0
L 425 0
z
" transform="scale(0.015625)"/>
        <path id="ArialMT-6d" d="M 422 0
L 422 3319
L 925 3319
L 925 2853
Q 1081 3097 1340 3245
Q 1600 3394 1931 3394
Q 2300 3394 2536 3241
Q 2772 3088 2869 2813
Q 3263 3394 3894 3394
Q 4388 3394 4653 3120
Q 4919 2847 4919 2278
L 4919 0
L 4359 0
L 4359 2091
Q 4359 2428 4304 2576
Q 4250 2725 4106 2815
Q 3963 2906 3769 2906
Q 3419 2906 3187 2673
Q 2956 2441 2956 1928
L 2956 0
L 2394 0
L 2394 2156
Q 2394 2531 2256 2718
Q 2119 2906 1806 2906
Q 1569 2906 1367 2781
Q 1166 2656 1075 2415
Q 984 2175 984 1722
L 984 0
L 422 0
z
" transform="scale(0.015625)"/>
        <path id="ArialMT-6c" d="M 409 0
L 409 4581
L 972 4581
L 972 0
L 409 0
z
" transform="scale(0.015625)"/>
        <path id="ArialMT-74" d="M 1650 503
L 1731 6
Q 1494 -44 1306 -44
Q 1000 -44 831 53
Q 663 150 594 308
Q 525 466 525 972
L 525 2881
L 113 2881
L 113 3319
L 525 3319
L 525 4141
L 1084 4478
L 1084 3319
L 1650 3319
L 1650 2881
L 1084 2881
L 1084 941
Q 1084 700 1114 631
Q 1144 563 1211 522
Q 1278 481 1403 481
Q 1497 481 1650 503
z
" transform="scale(0.015625)"/>
        <path id="ArialMT-79" d="M 397 -1278
L 334 -750
Q 519 -800 656 -800
Q 844 -800 956 -737
Q 1069 -675 1141 -563
Q 1194 -478 1313 -144
Q 1328 -97 1363 -6
L 103 3319
L 709 3319
L 1400 1397
Q 1534 1031 1641 628
Q 1738 1016 1872 1384
L 2581 3319
L 3144 3319
L 1881 -56
Q 1678 -603 1566 -809
Q 1416 -1088 1222 -1217
Q 1028 -1347 759 -1347
Q 597 -1347 397 -1278
z
" transform="scale(0.015625)"/>
       </defs>
       <use xlink:href="#ArialMT-4a"/>
       <use xlink:href="#ArialMT-61" transform="translate(50 0)"/>
       <use xlink:href="#ArialMT-63" transform="translate(105.615234 0)"/>
       <use xlink:href="#ArialMT-63" transform="translate(155.615234 0)"/>
       <use xlink:href="#ArialMT-61" transform="translate(205.615234 0)"/>
       <use xlink:href="#ArialMT-72" transform="translate(261.230469 0)"/>
       <use xlink:href="#ArialMT-64" transform="translate(294.53125 0)"/>
       <use xlink:href="#ArialMT-53" transform="translate(350.146484 0)"/>
       <use xlink:href="#ArialMT-69" transform="translate(416.845703 0)"/>
       <use xlink:href="#ArialMT-6d" transform="translate(439.0625 0)"/>
       <use xlink:href="#ArialMT-69" transform="translate(522.363281 0)"/>
       <use xlink:href="#ArialMT-6c" transform="translate(544.580078 0)"/>
       <use xlink:href="#ArialMT-61" transform="translate(566.796875 0)"/>
       <use xlink:href="#ArialMT-72" transform="translate(622.412109 0)"/>
       <use xlink:href="#ArialMT-69" transform="translate(655.712891 0)"/>
       <use xlink:href="#ArialMT-74" transform="translate(677.929688 0)"/>
       <use xlink:href="#ArialMT-79" transform="translate(705.712891 0)"/>
      </g>
     </g>
    </g>
    <g id="xtick_5">
     <g id="text_5">
      <!-- PRECISION -->
      <g style="fill: #262626" transform="translate(357.228192 399.888125) scale(0.1 -0.1)">
       <defs>
        <path id="ArialMT-45" d="M 506 0
L 506 4581
L 3819 4581
L 3819 4041
L 1113 4041
L 1113 2638
L 3647 2638
L 3647 2100
L 1113 2100
L 1113 541
L 3925 541
L 3925 0
L 506 0
z
" transform="scale(0.015625)"/>
        <path id="ArialMT-49" d="M 597 0
L 597 4581
L 1203 4581
L 1203 0
L 597 0
z
" transform="scale(0.015625)"/>
        <path id="ArialMT-4e" d="M 488 0
L 488 4581
L 1109 4581
L 3516 984
L 3516 4581
L 4097 4581
L 4097 0
L 3475 0
L 1069 3600
L 1069 0
L 488 0
z
" transform="scale(0.015625)"/>
       </defs>
       <use xlink:href="#ArialMT-50"/>
       <use xlink:href="#ArialMT-52" transform="translate(66.699219 0)"/>
       <use xlink:href="#ArialMT-45" transform="translate(138.916016 0)"/>
       <use xlink:href="#ArialMT-43" transform="translate(205.615234 0)"/>
       <use xlink:href="#ArialMT-49" transform="translate(277.832031 0)"/>
       <use xlink:href="#ArialMT-53" transform="translate(305.615234 0)"/>
       <use xlink:href="#ArialMT-49" transform="translate(372.314453 0)"/>
       <use xlink:href="#ArialMT-4f" transform="translate(400.097656 0)"/>
       <use xlink:href="#ArialMT-4e" transform="translate(477.880859 0)"/>
      </g>
     </g>
    </g>
    <g id="xtick_6">
     <g id="text_6">
      <!-- RECALL -->
      <g style="fill: #262626" transform="translate(441.204821 399.888125) scale(0.1 -0.1)">
       <defs>
        <path id="ArialMT-4c" d="M 469 0
L 469 4581
L 1075 4581
L 1075 541
L 3331 541
L 3331 0
L 469 0
z
" transform="scale(0.015625)"/>
       </defs>
       <use xlink:href="#ArialMT-52"/>
       <use xlink:href="#ArialMT-45" transform="translate(72.216797 0)"/>
       <use xlink:href="#ArialMT-43" transform="translate(138.916016 0)"/>
       <use xlink:href="#ArialMT-41" transform="translate(211.132812 0)"/>
       <use xlink:href="#ArialMT-4c" transform="translate(277.832031 0)"/>
       <use xlink:href="#ArialMT-4c" transform="translate(333.447266 0)"/>
      </g>
     </g>
    </g>
    <g id="xtick_7">
     <g id="text_7">
      <!-- 1 - Threshold -->
      <g style="fill: #262626" transform="translate(507.214263 399.888125) scale(0.1 -0.1)">
       <defs>
        <path id="ArialMT-20" transform="scale(0.015625)"/>
        <path id="ArialMT-2d" d="M 203 1375
L 203 1941
L 1931 1941
L 1931 1375
L 203 1375
z
" transform="scale(0.015625)"/>
        <path id="ArialMT-54" d="M 1659 0
L 1659 4041
L 150 4041
L 150 4581
L 3781 4581
L 3781 4041
L 2266 4041
L 2266 0
L 1659 0
z
" transform="scale(0.015625)"/>
        <path id="ArialMT-68" d="M 422 0
L 422 4581
L 984 4581
L 984 2938
Q 1378 3394 1978 3394
Q 2347 3394 2619 3248
Q 2891 3103 3008 2847
Q 3125 2591 3125 2103
L 3125 0
L 2563 0
L 2563 2103
Q 2563 2525 2380 2717
Q 2197 2909 1863 2909
Q 1613 2909 1392 2779
Q 1172 2650 1078 2428
Q 984 2206 984 1816
L 984 0
L 422 0
z
" transform="scale(0.015625)"/>
        <path id="ArialMT-65" d="M 2694 1069
L 3275 997
Q 3138 488 2766 206
Q 2394 -75 1816 -75
Q 1088 -75 661 373
Q 234 822 234 1631
Q 234 2469 665 2931
Q 1097 3394 1784 3394
Q 2450 3394 2872 2941
Q 3294 2488 3294 1666
Q 3294 1616 3291 1516
L 816 1516
Q 847 969 1125 678
Q 1403 388 1819 388
Q 2128 388 2347 550
Q 2566 713 2694 1069
z
M 847 1978
L 2700 1978
Q 2663 2397 2488 2606
Q 2219 2931 1791 2931
Q 1403 2931 1139 2672
Q 875 2413 847 1978
z
" transform="scale(0.015625)"/>
        <path id="ArialMT-73" d="M 197 991
L 753 1078
Q 800 744 1014 566
Q 1228 388 1613 388
Q 2000 388 2187 545
Q 2375 703 2375 916
Q 2375 1106 2209 1216
Q 2094 1291 1634 1406
Q 1016 1563 777 1677
Q 538 1791 414 1992
Q 291 2194 291 2438
Q 291 2659 392 2848
Q 494 3038 669 3163
Q 800 3259 1026 3326
Q 1253 3394 1513 3394
Q 1903 3394 2198 3281
Q 2494 3169 2634 2976
Q 2775 2784 2828 2463
L 2278 2388
Q 2241 2644 2061 2787
Q 1881 2931 1553 2931
Q 1166 2931 1000 2803
Q 834 2675 834 2503
Q 834 2394 903 2306
Q 972 2216 1119 2156
Q 1203 2125 1616 2013
Q 2213 1853 2448 1751
Q 2684 1650 2818 1456
Q 2953 1263 2953 975
Q 2953 694 2789 445
Q 2625 197 2315 61
Q 2006 -75 1616 -75
Q 969 -75 630 194
Q 291 463 197 991
z
" transform="scale(0.015625)"/>
        <path id="ArialMT-6f" d="M 213 1659
Q 213 2581 725 3025
Q 1153 3394 1769 3394
Q 2453 3394 2887 2945
Q 3322 2497 3322 1706
Q 3322 1066 3130 698
Q 2938 331 2570 128
Q 2203 -75 1769 -75
Q 1072 -75 642 372
Q 213 819 213 1659
z
M 791 1659
Q 791 1022 1069 705
Q 1347 388 1769 388
Q 2188 388 2466 706
Q 2744 1025 2744 1678
Q 2744 2294 2464 2611
Q 2184 2928 1769 2928
Q 1347 2928 1069 2612
Q 791 2297 791 1659
z
" transform="scale(0.015625)"/>
       </defs>
       <use xlink:href="#ArialMT-31"/>
       <use xlink:href="#ArialMT-20" transform="translate(55.615234 0)"/>
       <use xlink:href="#ArialMT-2d" transform="translate(83.398438 0)"/>
       <use xlink:href="#ArialMT-20" transform="translate(116.699219 0)"/>
       <use xlink:href="#ArialMT-54" transform="translate(142.732422 0)"/>
       <use xlink:href="#ArialMT-68" transform="translate(203.816406 0)"/>
       <use xlink:href="#ArialMT-72" transform="translate(259.431641 0)"/>
       <use xlink:href="#ArialMT-65" transform="translate(292.732422 0)"/>
       <use xlink:href="#ArialMT-73" transform="translate(348.347656 0)"/>
       <use xlink:href="#ArialMT-68" transform="translate(398.347656 0)"/>
       <use xlink:href="#ArialMT-6f" transform="translate(453.962891 0)"/>
       <use xlink:href="#ArialMT-6c" transform="translate(509.578125 0)"/>
       <use xlink:href="#ArialMT-64" transform="translate(531.794922 0)"/>
      </g>
     </g>
    </g>
    <g id="text_8">
     <!-- Metric -->
     <g style="fill: #262626" transform="translate(292.477187 414.704062) scale(0.12 -0.12)">
      <defs>
       <path id="ArialMT-4d" d="M 475 0
L 475 4581
L 1388 4581
L 2472 1338
Q 2622 884 2691 659
Q 2769 909 2934 1394
L 4031 4581
L 4847 4581
L 4847 0
L 4263 0
L 4263 3834
L 2931 0
L 2384 0
L 1059 3900
L 1059 0
L 475 0
z
" transform="scale(0.015625)"/>
      </defs>
      <use xlink:href="#ArialMT-4d"/>
      <use xlink:href="#ArialMT-65" transform="translate(83.300781 0)"/>
      <use xlink:href="#ArialMT-74" transform="translate(138.916016 0)"/>
      <use xlink:href="#ArialMT-72" transform="translate(166.699219 0)"/>
      <use xlink:href="#ArialMT-69" transform="translate(200 0)"/>
      <use xlink:href="#ArialMT-63" transform="translate(222.216797 0)"/>
     </g>
    </g>
   </g>
   <g id="matplotlib.axis_2">
    <g id="ytick_1">
     <g id="line2d_1">
      <path d="M 43.074375 385.730312
L 574.544375 385.730312
" clip-path="url(#pd688f973cd)" style="fill: none; stroke: #cccccc; stroke-width: 0.8; stroke-linecap: round"/>
     </g>
     <g id="text_9">
      <!-- 0.0 -->
      <g style="fill: #262626" transform="translate(22.174375 389.309219) scale(0.1 -0.1)">
       <defs>
        <path id="ArialMT-30" d="M 266 2259
Q 266 3072 433 3567
Q 600 4063 929 4331
Q 1259 4600 1759 4600
Q 2128 4600 2406 4451
Q 2684 4303 2865 4023
Q 3047 3744 3150 3342
Q 3253 2941 3253 2259
Q 3253 1453 3087 958
Q 2922 463 2592 192
Q 2263 -78 1759 -78
Q 1097 -78 719 397
Q 266 969 266 2259
z
M 844 2259
Q 844 1131 1108 757
Q 1372 384 1759 384
Q 2147 384 2411 759
Q 2675 1134 2675 2259
Q 2675 3391 2411 3762
Q 2147 4134 1753 4134
Q 1366 4134 1134 3806
Q 844 3388 844 2259
z
" transform="scale(0.015625)"/>
        <path id="ArialMT-2e" d="M 581 0
L 581 641
L 1222 641
L 1222 0
L 581 0
z
" transform="scale(0.015625)"/>
       </defs>
       <use xlink:href="#ArialMT-30"/>
       <use xlink:href="#ArialMT-2e" transform="translate(55.615234 0)"/>
       <use xlink:href="#ArialMT-30" transform="translate(83.398438 0)"/>
      </g>
     </g>
    </g>
    <g id="ytick_2">
     <g id="line2d_2">
      <path d="M 43.074375 319.85054
L 574.544375 319.85054
" clip-path="url(#pd688f973cd)" style="fill: none; stroke: #cccccc; stroke-width: 0.8; stroke-linecap: round"/>
     </g>
     <g id="text_10">
      <!-- 0.2 -->
      <g style="fill: #262626" transform="translate(22.174375 323.429446) scale(0.1 -0.1)">
       <defs>
        <path id="ArialMT-32" d="M 3222 541
L 3222 0
L 194 0
Q 188 203 259 391
Q 375 700 629 1000
Q 884 1300 1366 1694
Q 2113 2306 2375 2664
Q 2638 3022 2638 3341
Q 2638 3675 2398 3904
Q 2159 4134 1775 4134
Q 1369 4134 1125 3890
Q 881 3647 878 3216
L 300 3275
Q 359 3922 746 4261
Q 1134 4600 1788 4600
Q 2447 4600 2831 4234
Q 3216 3869 3216 3328
Q 3216 3053 3103 2787
Q 2991 2522 2730 2228
Q 2469 1934 1863 1422
Q 1356 997 1212 845
Q 1069 694 975 541
L 3222 541
z
" transform="scale(0.015625)"/>
       </defs>
       <use xlink:href="#ArialMT-30"/>
       <use xlink:href="#ArialMT-2e" transform="translate(55.615234 0)"/>
       <use xlink:href="#ArialMT-32" transform="translate(83.398438 0)"/>
      </g>
     </g>
    </g>
    <g id="ytick_3">
     <g id="line2d_3">
      <path d="M 43.074375 253.970767
L 574.544375 253.970767
" clip-path="url(#pd688f973cd)" style="fill: none; stroke: #cccccc; stroke-width: 0.8; stroke-linecap: round"/>
     </g>
     <g id="text_11">
      <!-- 0.4 -->
      <g style="fill: #262626" transform="translate(22.174375 257.549673) scale(0.1 -0.1)">
       <defs>
        <path id="ArialMT-34" d="M 2069 0
L 2069 1097
L 81 1097
L 81 1613
L 2172 4581
L 2631 4581
L 2631 1613
L 3250 1613
L 3250 1097
L 2631 1097
L 2631 0
L 2069 0
z
M 2069 1613
L 2069 3678
L 634 1613
L 2069 1613
z
" transform="scale(0.015625)"/>
       </defs>
       <use xlink:href="#ArialMT-30"/>
       <use xlink:href="#ArialMT-2e" transform="translate(55.615234 0)"/>
       <use xlink:href="#ArialMT-34" transform="translate(83.398438 0)"/>
      </g>
     </g>
    </g>
    <g id="ytick_4">
     <g id="line2d_4">
      <path d="M 43.074375 188.090994
L 574.544375 188.090994
" clip-path="url(#pd688f973cd)" style="fill: none; stroke: #cccccc; stroke-width: 0.8; stroke-linecap: round"/>
     </g>
     <g id="text_12">
      <!-- 0.6 -->
      <g style="fill: #262626" transform="translate(22.174375 191.669901) scale(0.1 -0.1)">
       <defs>
        <path id="ArialMT-36" d="M 3184 3459
L 2625 3416
Q 2550 3747 2413 3897
Q 2184 4138 1850 4138
Q 1581 4138 1378 3988
Q 1113 3794 959 3422
Q 806 3050 800 2363
Q 1003 2672 1297 2822
Q 1591 2972 1913 2972
Q 2475 2972 2870 2558
Q 3266 2144 3266 1488
Q 3266 1056 3080 686
Q 2894 316 2569 119
Q 2244 -78 1831 -78
Q 1128 -78 684 439
Q 241 956 241 2144
Q 241 3472 731 4075
Q 1159 4600 1884 4600
Q 2425 4600 2770 4297
Q 3116 3994 3184 3459
z
M 888 1484
Q 888 1194 1011 928
Q 1134 663 1356 523
Q 1578 384 1822 384
Q 2178 384 2434 671
Q 2691 959 2691 1453
Q 2691 1928 2437 2201
Q 2184 2475 1800 2475
Q 1419 2475 1153 2201
Q 888 1928 888 1484
z
" transform="scale(0.015625)"/>
       </defs>
       <use xlink:href="#ArialMT-30"/>
       <use xlink:href="#ArialMT-2e" transform="translate(55.615234 0)"/>
       <use xlink:href="#ArialMT-36" transform="translate(83.398438 0)"/>
      </g>
     </g>
    </g>
    <g id="ytick_5">
     <g id="line2d_5">
      <path d="M 43.074375 122.211222
L 574.544375 122.211222
" clip-path="url(#pd688f973cd)" style="fill: none; stroke: #cccccc; stroke-width: 0.8; stroke-linecap: round"/>
     </g>
     <g id="text_13">
      <!-- 0.8 -->
      <g style="fill: #262626" transform="translate(22.174375 125.790128) scale(0.1 -0.1)">
       <defs>
        <path id="ArialMT-38" d="M 1131 2484
Q 781 2613 612 2850
Q 444 3088 444 3419
Q 444 3919 803 4259
Q 1163 4600 1759 4600
Q 2359 4600 2725 4251
Q 3091 3903 3091 3403
Q 3091 3084 2923 2848
Q 2756 2613 2416 2484
Q 2838 2347 3058 2040
Q 3278 1734 3278 1309
Q 3278 722 2862 322
Q 2447 -78 1769 -78
Q 1091 -78 675 323
Q 259 725 259 1325
Q 259 1772 486 2073
Q 713 2375 1131 2484
z
M 1019 3438
Q 1019 3113 1228 2906
Q 1438 2700 1772 2700
Q 2097 2700 2305 2904
Q 2513 3109 2513 3406
Q 2513 3716 2298 3927
Q 2084 4138 1766 4138
Q 1444 4138 1231 3931
Q 1019 3725 1019 3438
z
M 838 1322
Q 838 1081 952 856
Q 1066 631 1291 507
Q 1516 384 1775 384
Q 2178 384 2440 643
Q 2703 903 2703 1303
Q 2703 1709 2433 1975
Q 2163 2241 1756 2241
Q 1359 2241 1098 1978
Q 838 1716 838 1322
z
" transform="scale(0.015625)"/>
       </defs>
       <use xlink:href="#ArialMT-30"/>
       <use xlink:href="#ArialMT-2e" transform="translate(55.615234 0)"/>
       <use xlink:href="#ArialMT-38" transform="translate(83.398438 0)"/>
      </g>
     </g>
    </g>
    <g id="ytick_6">
     <g id="line2d_6">
      <path d="M 43.074375 56.331449
L 574.544375 56.331449
" clip-path="url(#pd688f973cd)" style="fill: none; stroke: #cccccc; stroke-width: 0.8; stroke-linecap: round"/>
     </g>
     <g id="text_14">
      <!-- 1.0 -->
      <g style="fill: #262626" transform="translate(22.174375 59.910355) scale(0.1 -0.1)">
       <use xlink:href="#ArialMT-31"/>
       <use xlink:href="#ArialMT-2e" transform="translate(55.615234 0)"/>
       <use xlink:href="#ArialMT-30" transform="translate(83.398438 0)"/>
      </g>
     </g>
    </g>
    <g id="text_15">
     <!-- Value -->
     <g style="fill: #262626" transform="translate(15.789375 219.463437) rotate(-90) scale(0.12 -0.12)">
      <defs>
       <path id="ArialMT-56" d="M 1803 0
L 28 4581
L 684 4581
L 1875 1253
Q 2019 853 2116 503
Q 2222 878 2363 1253
L 3600 4581
L 4219 4581
L 2425 0
L 1803 0
z
" transform="scale(0.015625)"/>
       <path id="ArialMT-75" d="M 2597 0
L 2597 488
Q 2209 -75 1544 -75
Q 1250 -75 995 37
Q 741 150 617 320
Q 494 491 444 738
Q 409 903 409 1263
L 409 3319
L 972 3319
L 972 1478
Q 972 1038 1006 884
Q 1059 663 1231 536
Q 1403 409 1656 409
Q 1909 409 2131 539
Q 2353 669 2445 892
Q 2538 1116 2538 1541
L 2538 3319
L 3100 3319
L 3100 0
L 2597 0
z
" transform="scale(0.015625)"/>
      </defs>
      <use xlink:href="#ArialMT-56"/>
      <use xlink:href="#ArialMT-61" transform="translate(59.324219 0)"/>
      <use xlink:href="#ArialMT-6c" transform="translate(114.939453 0)"/>
      <use xlink:href="#ArialMT-75" transform="translate(137.15625 0)"/>
      <use xlink:href="#ArialMT-65" transform="translate(192.771484 0)"/>
     </g>
    </g>
   </g>
   <g id="patch_3">
    <path d="M 50.666804 385.730312
L 57.415629 385.730312
L 57.415629 242.015611
L 50.666804 242.015611
z
" clip-path="url(#pd688f973cd)" style="fill: #3274a1; stroke: #ffffff; stroke-linejoin: miter"/>
   </g>
   <g id="patch_4">
    <path d="M 126.591089 385.730312
L 133.339915 385.730312
L 133.339915 293.213965
L 126.591089 293.213965
z
" clip-path="url(#pd688f973cd)" style="fill: #3274a1; stroke: #ffffff; stroke-linejoin: miter"/>
   </g>
   <g id="patch_5">
    <path d="M 202.515375 385.730312
L 209.2642 385.730312
L 209.2642 166.13107
L 202.515375 166.13107
z
" clip-path="url(#pd688f973cd)" style="fill: #3274a1; stroke: #ffffff; stroke-linejoin: miter"/>
   </g>
   <g id="patch_6">
    <path d="M 278.439661 385.730312
L 285.188486 385.730312
L 285.188486 221.030881
L 278.439661 221.030881
z
" clip-path="url(#pd688f973cd)" style="fill: #3274a1; stroke: #ffffff; stroke-linejoin: miter"/>
   </g>
   <g id="patch_7">
    <path d="M 354.363946 385.730312
L 361.112772 385.730312
L 361.112772 221.030881
L 354.363946 221.030881
z
" clip-path="url(#pd688f973cd)" style="fill: #3274a1; stroke: #ffffff; stroke-linejoin: miter"/>
   </g>
   <g id="patch_8">
    <path d="M 430.288232 385.730312
L 437.037058 385.730312
L 437.037058 56.331449
L 430.288232 56.331449
z
" clip-path="url(#pd688f973cd)" style="fill: #3274a1; stroke: #ffffff; stroke-linejoin: miter"/>
   </g>
   <g id="patch_9">
    <path d="M 57.415629 385.730312
L 64.164454 385.730312
L 64.164454 266.807882
L 57.415629 266.807882
z
" clip-path="url(#pd688f973cd)" style="fill: #e1812c; stroke: #ffffff; stroke-linejoin: miter"/>
   </g>
   <g id="patch_10">
    <path d="M 133.339915 385.730312
L 140.08874 385.730312
L 140.08874 350.147102
L 133.339915 350.147102
z
" clip-path="url(#pd688f973cd)" style="fill: #e1812c; stroke: #ffffff; stroke-linejoin: miter"/>
   </g>
   <g id="patch_11">
    <path d="M 209.2642 385.730312
L 216.013026 385.730312
L 216.013026 166.13107
L 209.2642 166.13107
z
" clip-path="url(#pd688f973cd)" style="fill: #e1812c; stroke: #ffffff; stroke-linejoin: miter"/>
   </g>
   <g id="patch_12">
    <path d="M 285.188486 385.730312
L 291.937312 385.730312
L 291.937312 221.030881
L 285.188486 221.030881
z
" clip-path="url(#pd688f973cd)" style="fill: #e1812c; stroke: #ffffff; stroke-linejoin: miter"/>
   </g>
   <g id="patch_13">
    <path d="M 361.112772 385.730312
L 367.861597 385.730312
L 367.861597 221.030881
L 361.112772 221.030881
z
" clip-path="url(#pd688f973cd)" style="fill: #e1812c; stroke: #ffffff; stroke-linejoin: miter"/>
   </g>
   <g id="patch_14">
    <path d="M 437.037058 385.730312
L 443.785883 385.730312
L 443.785883 56.331449
L 437.037058 56.331449
z
" clip-path="url(#pd688f973cd)" style="fill: #e1812c; stroke: #ffffff; stroke-linejoin: miter"/>
   </g>
   <g id="patch_15">
    <path d="M 64.164454 385.730312
L 70.91328 385.730312
L 70.91328 262.060874
L 64.164454 262.060874
z
" clip-path="url(#pd688f973cd)" style="fill: #3a923a; stroke: #ffffff; stroke-linejoin: miter"/>
   </g>
   <g id="patch_16">
    <path d="M 140.08874 385.730312
L 146.837565 385.730312
L 146.837565 320.66387
L 140.08874 320.66387
z
" clip-path="url(#pd688f973cd)" style="fill: #3a923a; stroke: #ffffff; stroke-linejoin: miter"/>
   </g>
   <g id="patch_17">
    <path d="M 216.013026 385.730312
L 222.761851 385.730312
L 222.761851 166.13107
L 216.013026 166.13107
z
" clip-path="url(#pd688f973cd)" style="fill: #3a923a; stroke: #ffffff; stroke-linejoin: miter"/>
   </g>
   <g id="patch_18">
    <path d="M 367.861597 385.730312
L 374.610423 385.730312
L 374.610423 221.030881
L 367.861597 221.030881
z
" clip-path="url(#pd688f973cd)" style="fill: #3a923a; stroke: #ffffff; stroke-linejoin: miter"/>
   </g>
   <g id="patch_19">
    <path d="M 443.785883 385.730312
L 450.534708 385.730312
L 450.534708 56.331449
L 443.785883 56.331449
z
" clip-path="url(#pd688f973cd)" style="fill: #3a923a; stroke: #ffffff; stroke-linejoin: miter"/>
   </g>
   <g id="patch_20">
    <path d="M 70.91328 385.730312
L 77.662105 385.730312
L 77.662105 232.662146
L 70.91328 232.662146
z
" clip-path="url(#pd688f973cd)" style="fill: #c03d3e; stroke: #ffffff; stroke-linejoin: miter"/>
   </g>
   <g id="patch_21">
    <path d="M 146.837565 385.730312
L 153.586391 385.730312
L 153.586391 287.113986
L 146.837565 287.113986
z
" clip-path="url(#pd688f973cd)" style="fill: #c03d3e; stroke: #ffffff; stroke-linejoin: miter"/>
   </g>
   <g id="patch_22">
    <path d="M 222.761851 385.730312
L 229.510677 385.730312
L 229.510677 166.13107
L 222.761851 166.13107
z
" clip-path="url(#pd688f973cd)" style="fill: #c03d3e; stroke: #ffffff; stroke-linejoin: miter"/>
   </g>
   <g id="patch_23">
    <path d="M 298.686137 385.730312
L 305.434962 385.730312
L 305.434962 221.030881
L 298.686137 221.030881
z
" clip-path="url(#pd688f973cd)" style="fill: #c03d3e; stroke: #ffffff; stroke-linejoin: miter"/>
   </g>
   <g id="patch_24">
    <path d="M 374.610423 385.730312
L 381.359248 385.730312
L 381.359248 221.030881
L 374.610423 221.030881
z
" clip-path="url(#pd688f973cd)" style="fill: #c03d3e; stroke: #ffffff; stroke-linejoin: miter"/>
   </g>
   <g id="patch_25">
    <path d="M 450.534708 385.730312
L 457.283534 385.730312
L 457.283534 56.331449
L 450.534708 56.331449
z
" clip-path="url(#pd688f973cd)" style="fill: #c03d3e; stroke: #ffffff; stroke-linejoin: miter"/>
   </g>
   <g id="patch_26">
    <path d="M 77.662105 385.730312
L 84.410931 385.730312
L 84.410931 226.520862
L 77.662105 226.520862
z
" clip-path="url(#pd688f973cd)" style="fill: #9372b2; stroke: #ffffff; stroke-linejoin: miter"/>
   </g>
   <g id="patch_27">
    <path d="M 153.586391 385.730312
L 160.335216 385.730312
L 160.335216 248.480786
L 153.586391 248.480786
z
" clip-path="url(#pd688f973cd)" style="fill: #9372b2; stroke: #ffffff; stroke-linejoin: miter"/>
   </g>
   <g id="patch_28">
    <path d="M 229.510677 385.730312
L 236.259502 385.730312
L 236.259502 166.13107
L 229.510677 166.13107
z
" clip-path="url(#pd688f973cd)" style="fill: #9372b2; stroke: #ffffff; stroke-linejoin: miter"/>
   </g>
   <g id="patch_29">
    <path d="M 305.434962 385.730312
L 312.183788 385.730312
L 312.183788 221.030881
L 305.434962 221.030881
z
" clip-path="url(#pd688f973cd)" style="fill: #9372b2; stroke: #ffffff; stroke-linejoin: miter"/>
   </g>
   <g id="patch_30">
    <path d="M 381.359248 385.730312
L 388.108073 385.730312
L 388.108073 221.030881
L 381.359248 221.030881
z
" clip-path="url(#pd688f973cd)" style="fill: #9372b2; stroke: #ffffff; stroke-linejoin: miter"/>
   </g>
   <g id="patch_31">
    <path d="M 457.283534 385.730312
L 464.032359 385.730312
L 464.032359 56.331449
L 457.283534 56.331449
z
" clip-path="url(#pd688f973cd)" style="fill: #9372b2; stroke: #ffffff; stroke-linejoin: miter"/>
   </g>
   <g id="patch_32">
    <path d="M 84.410931 385.730312
L 91.159756 385.730312
L 91.159756 245.27002
L 84.410931 245.27002
z
" clip-path="url(#pd688f973cd)" style="fill: #845b53; stroke: #ffffff; stroke-linejoin: miter"/>
   </g>
   <g id="patch_33">
    <path d="M 160.335216 385.730312
L 167.084042 385.730312
L 167.084042 274.405697
L 160.335216 274.405697
z
" clip-path="url(#pd688f973cd)" style="fill: #845b53; stroke: #ffffff; stroke-linejoin: miter"/>
   </g>
   <g id="patch_34">
    <path d="M 236.259502 385.730312
L 243.008327 385.730312
L 243.008327 166.13107
L 236.259502 166.13107
z
" clip-path="url(#pd688f973cd)" style="fill: #845b53; stroke: #ffffff; stroke-linejoin: miter"/>
   </g>
   <g id="patch_35">
    <path d="M 312.183788 385.730312
L 318.932613 385.730312
L 318.932613 221.030881
L 312.183788 221.030881
z
" clip-path="url(#pd688f973cd)" style="fill: #845b53; stroke: #ffffff; stroke-linejoin: miter"/>
   </g>
   <g id="patch_36">
    <path d="M 388.108073 385.730312
L 394.856899 385.730312
L 394.856899 221.030881
L 388.108073 221.030881
z
" clip-path="url(#pd688f973cd)" style="fill: #845b53; stroke: #ffffff; stroke-linejoin: miter"/>
   </g>
   <g id="patch_37">
    <path d="M 464.032359 385.730312
L 470.781185 385.730312
L 470.781185 56.331449
L 464.032359 56.331449
z
" clip-path="url(#pd688f973cd)" style="fill: #845b53; stroke: #ffffff; stroke-linejoin: miter"/>
   </g>
   <g id="patch_38">
    <path d="M 91.159756 385.730312
L 97.908581 385.730312
L 97.908581 240.87664
L 91.159756 240.87664
z
" clip-path="url(#pd688f973cd)" style="fill: #d684bd; stroke: #ffffff; stroke-linejoin: miter"/>
   </g>
   <g id="patch_39">
    <path d="M 167.084042 385.730312
L 173.832867 385.730312
L 173.832867 306.430586
L 167.084042 306.430586
z
" clip-path="url(#pd688f973cd)" style="fill: #d684bd; stroke: #ffffff; stroke-linejoin: miter"/>
   </g>
   <g id="patch_40">
    <path d="M 243.008327 385.730312
L 249.757153 385.730312
L 249.757153 166.13107
L 243.008327 166.13107
z
" clip-path="url(#pd688f973cd)" style="fill: #d684bd; stroke: #ffffff; stroke-linejoin: miter"/>
   </g>
   <g id="patch_41">
    <path d="M 318.932613 385.730312
L 325.681438 385.730312
L 325.681438 221.030881
L 318.932613 221.030881
z
" clip-path="url(#pd688f973cd)" style="fill: #d684bd; stroke: #ffffff; stroke-linejoin: miter"/>
   </g>
   <g id="patch_42">
    <path d="M 394.856899 385.730312
L 401.605724 385.730312
L 401.605724 221.030881
L 394.856899 221.030881
z
" clip-path="url(#pd688f973cd)" style="fill: #d684bd; stroke: #ffffff; stroke-linejoin: miter"/>
   </g>
   <g id="patch_43">
    <path d="M 470.781185 385.730312
L 477.53001 385.730312
L 477.53001 56.331449
L 470.781185 56.331449
z
" clip-path="url(#pd688f973cd)" style="fill: #d684bd; stroke: #ffffff; stroke-linejoin: miter"/>
   </g>
   <g id="patch_44">
    <path d="M 97.908581 385.730312
L 104.657407 385.730312
L 104.657407 257.687521
L 97.908581 257.687521
z
" clip-path="url(#pd688f973cd)" style="fill: #7f7f7f; stroke: #ffffff; stroke-linejoin: miter"/>
   </g>
   <g id="patch_45">
    <path d="M 173.832867 385.730312
L 180.581692 385.730312
L 180.581692 325.747186
L 173.832867 325.747186
z
" clip-path="url(#pd688f973cd)" style="fill: #7f7f7f; stroke: #ffffff; stroke-linejoin: miter"/>
   </g>
   <g id="patch_46">
    <path d="M 249.757153 385.730312
L 256.505978 385.730312
L 256.505978 166.13107
L 249.757153 166.13107
z
" clip-path="url(#pd688f973cd)" style="fill: #7f7f7f; stroke: #ffffff; stroke-linejoin: miter"/>
   </g>
   <g id="patch_47">
    <path d="M 325.681438 385.730312
L 332.430264 385.730312
L 332.430264 221.030881
L 325.681438 221.030881
z
" clip-path="url(#pd688f973cd)" style="fill: #7f7f7f; stroke: #ffffff; stroke-linejoin: miter"/>
   </g>
   <g id="patch_48">
    <path d="M 401.605724 385.730312
L 408.35455 385.730312
L 408.35455 221.030881
L 401.605724 221.030881
z
" clip-path="url(#pd688f973cd)" style="fill: #7f7f7f; stroke: #ffffff; stroke-linejoin: miter"/>
   </g>
   <g id="patch_49">
    <path d="M 477.53001 385.730312
L 484.278835 385.730312
L 484.278835 56.331449
L 477.53001 56.331449
z
" clip-path="url(#pd688f973cd)" style="fill: #7f7f7f; stroke: #ffffff; stroke-linejoin: miter"/>
   </g>
   <g id="patch_50">
    <path d="M 104.657407 385.730312
L 111.406232 385.730312
L 111.406232 238.212488
L 104.657407 238.212488
z
" clip-path="url(#pd688f973cd)" style="fill: #a9aa35; stroke: #ffffff; stroke-linejoin: miter"/>
   </g>
   <g id="patch_51">
    <path d="M 180.581692 385.730312
L 187.330518 385.730312
L 187.330518 310.497239
L 180.581692 310.497239
z
" clip-path="url(#pd688f973cd)" style="fill: #a9aa35; stroke: #ffffff; stroke-linejoin: miter"/>
   </g>
   <g id="patch_52">
    <path d="M 256.505978 385.730312
L 263.254804 385.730312
L 263.254804 166.13107
L 256.505978 166.13107
z
" clip-path="url(#pd688f973cd)" style="fill: #a9aa35; stroke: #ffffff; stroke-linejoin: miter"/>
   </g>
   <g id="patch_53">
    <path d="M 332.430264 385.730312
L 339.179089 385.730312
L 339.179089 221.030881
L 332.430264 221.030881
z
" clip-path="url(#pd688f973cd)" style="fill: #a9aa35; stroke: #ffffff; stroke-linejoin: miter"/>
   </g>
   <g id="patch_54">
    <path d="M 408.35455 385.730312
L 415.103375 385.730312
L 415.103375 221.030881
L 408.35455 221.030881
z
" clip-path="url(#pd688f973cd)" style="fill: #a9aa35; stroke: #ffffff; stroke-linejoin: miter"/>
   </g>
   <g id="patch_55">
    <path d="M 484.278835 385.730312
L 491.027661 385.730312
L 491.027661 56.331449
L 484.278835 56.331449
z
" clip-path="url(#pd688f973cd)" style="fill: #a9aa35; stroke: #ffffff; stroke-linejoin: miter"/>
   </g>
   <g id="patch_56">
    <path d="M 81.036518 385.730312
L 81.036518 385.730312
L 81.036518 385.730312
L 81.036518 385.730312
z
" clip-path="url(#pd688f973cd)" style="fill: #3274a1; stroke: #ffffff; stroke-linejoin: miter"/>
   </g>
   <g id="patch_57">
    <path d="M 81.036518 385.730312
L 81.036518 385.730312
L 81.036518 385.730312
L 81.036518 385.730312
z
" clip-path="url(#pd688f973cd)" style="fill: #e1812c; stroke: #ffffff; stroke-linejoin: miter"/>
   </g>
   <g id="patch_58">
    <path d="M 81.036518 385.730312
L 81.036518 385.730312
L 81.036518 385.730312
L 81.036518 385.730312
z
" clip-path="url(#pd688f973cd)" style="fill: #3a923a; stroke: #ffffff; stroke-linejoin: miter"/>
   </g>
   <g id="patch_59">
    <path d="M 81.036518 385.730312
L 81.036518 385.730312
L 81.036518 385.730312
L 81.036518 385.730312
z
" clip-path="url(#pd688f973cd)" style="fill: #c03d3e; stroke: #ffffff; stroke-linejoin: miter"/>
   </g>
   <g id="patch_60">
    <path d="M 81.036518 385.730312
L 81.036518 385.730312
L 81.036518 385.730312
L 81.036518 385.730312
z
" clip-path="url(#pd688f973cd)" style="fill: #9372b2; stroke: #ffffff; stroke-linejoin: miter"/>
   </g>
   <g id="patch_61">
    <path d="M 81.036518 385.730312
L 81.036518 385.730312
L 81.036518 385.730312
L 81.036518 385.730312
z
" clip-path="url(#pd688f973cd)" style="fill: #845b53; stroke: #ffffff; stroke-linejoin: miter"/>
   </g>
   <g id="patch_62">
    <path d="M 81.036518 385.730312
L 81.036518 385.730312
L 81.036518 385.730312
L 81.036518 385.730312
z
" clip-path="url(#pd688f973cd)" style="fill: #d684bd; stroke: #ffffff; stroke-linejoin: miter"/>
   </g>
   <g id="patch_63">
    <path d="M 81.036518 385.730312
L 81.036518 385.730312
L 81.036518 385.730312
L 81.036518 385.730312
z
" clip-path="url(#pd688f973cd)" style="fill: #7f7f7f; stroke: #ffffff; stroke-linejoin: miter"/>
   </g>
   <g id="patch_64">
    <path d="M 81.036518 385.730312
L 81.036518 385.730312
L 81.036518 385.730312
L 81.036518 385.730312
z
" clip-path="url(#pd688f973cd)" style="fill: #a9aa35; stroke: #ffffff; stroke-linejoin: miter"/>
   </g>
   <g id="line2d_7">
    <path clip-path="url(#pd688f973cd)" style="fill: none; stroke: #424242; stroke-width: 2.25; stroke-linecap: round"/>
   </g>
   <g id="line2d_8">
    <path clip-path="url(#pd688f973cd)" style="fill: none; stroke: #424242; stroke-width: 2.25; stroke-linecap: round"/>
   </g>
   <g id="line2d_9">
    <path clip-path="url(#pd688f973cd)" style="fill: none; stroke: #424242; stroke-width: 2.25; stroke-linecap: round"/>
   </g>
   <g id="line2d_10">
    <path clip-path="url(#pd688f973cd)" style="fill: none; stroke: #424242; stroke-width: 2.25; stroke-linecap: round"/>
   </g>
   <g id="line2d_11">
    <path clip-path="url(#pd688f973cd)" style="fill: none; stroke: #424242; stroke-width: 2.25; stroke-linecap: round"/>
   </g>
   <g id="line2d_12">
    <path clip-path="url(#pd688f973cd)" style="fill: none; stroke: #424242; stroke-width: 2.25; stroke-linecap: round"/>
   </g>
   <g id="line2d_13">
    <path clip-path="url(#pd688f973cd)" style="fill: none; stroke: #424242; stroke-width: 2.25; stroke-linecap: round"/>
   </g>
   <g id="line2d_14">
    <path clip-path="url(#pd688f973cd)" style="fill: none; stroke: #424242; stroke-width: 2.25; stroke-linecap: round"/>
   </g>
   <g id="line2d_15">
    <path clip-path="url(#pd688f973cd)" style="fill: none; stroke: #424242; stroke-width: 2.25; stroke-linecap: round"/>
   </g>
   <g id="line2d_16">
    <path clip-path="url(#pd688f973cd)" style="fill: none; stroke: #424242; stroke-width: 2.25; stroke-linecap: round"/>
   </g>
   <g id="line2d_17">
    <path clip-path="url(#pd688f973cd)" style="fill: none; stroke: #424242; stroke-width: 2.25; stroke-linecap: round"/>
   </g>
   <g id="line2d_18">
    <path clip-path="url(#pd688f973cd)" style="fill: none; stroke: #424242; stroke-width: 2.25; stroke-linecap: round"/>
   </g>
   <g id="line2d_19">
    <path clip-path="url(#pd688f973cd)" style="fill: none; stroke: #424242; stroke-width: 2.25; stroke-linecap: round"/>
   </g>
   <g id="line2d_20">
    <path clip-path="url(#pd688f973cd)" style="fill: none; stroke: #424242; stroke-width: 2.25; stroke-linecap: round"/>
   </g>
   <g id="line2d_21">
    <path clip-path="url(#pd688f973cd)" style="fill: none; stroke: #424242; stroke-width: 2.25; stroke-linecap: round"/>
   </g>
   <g id="line2d_22">
    <path clip-path="url(#pd688f973cd)" style="fill: none; stroke: #424242; stroke-width: 2.25; stroke-linecap: round"/>
   </g>
   <g id="line2d_23">
    <path clip-path="url(#pd688f973cd)" style="fill: none; stroke: #424242; stroke-width: 2.25; stroke-linecap: round"/>
   </g>
   <g id="line2d_24">
    <path clip-path="url(#pd688f973cd)" style="fill: none; stroke: #424242; stroke-width: 2.25; stroke-linecap: round"/>
   </g>
   <g id="line2d_25">
    <path clip-path="url(#pd688f973cd)" style="fill: none; stroke: #424242; stroke-width: 2.25; stroke-linecap: round"/>
   </g>
   <g id="line2d_26">
    <path clip-path="url(#pd688f973cd)" style="fill: none; stroke: #424242; stroke-width: 2.25; stroke-linecap: round"/>
   </g>
   <g id="line2d_27">
    <path clip-path="url(#pd688f973cd)" style="fill: none; stroke: #424242; stroke-width: 2.25; stroke-linecap: round"/>
   </g>
   <g id="line2d_28">
    <path clip-path="url(#pd688f973cd)" style="fill: none; stroke: #424242; stroke-width: 2.25; stroke-linecap: round"/>
   </g>
   <g id="line2d_29">
    <path clip-path="url(#pd688f973cd)" style="fill: none; stroke: #424242; stroke-width: 2.25; stroke-linecap: round"/>
   </g>
   <g id="line2d_30">
    <path clip-path="url(#pd688f973cd)" style="fill: none; stroke: #424242; stroke-width: 2.25; stroke-linecap: round"/>
   </g>
   <g id="line2d_31">
    <path clip-path="url(#pd688f973cd)" style="fill: none; stroke: #424242; stroke-width: 2.25; stroke-linecap: round"/>
   </g>
   <g id="line2d_32">
    <path clip-path="url(#pd688f973cd)" style="fill: none; stroke: #424242; stroke-width: 2.25; stroke-linecap: round"/>
   </g>
   <g id="line2d_33">
    <path clip-path="url(#pd688f973cd)" style="fill: none; stroke: #424242; stroke-width: 2.25; stroke-linecap: round"/>
   </g>
   <g id="line2d_34">
    <path clip-path="url(#pd688f973cd)" style="fill: none; stroke: #424242; stroke-width: 2.25; stroke-linecap: round"/>
   </g>
   <g id="line2d_35">
    <path clip-path="url(#pd688f973cd)" style="fill: none; stroke: #424242; stroke-width: 2.25; stroke-linecap: round"/>
   </g>
   <g id="line2d_36">
    <path clip-path="url(#pd688f973cd)" style="fill: none; stroke: #424242; stroke-width: 2.25; stroke-linecap: round"/>
   </g>
   <g id="line2d_37">
    <path clip-path="url(#pd688f973cd)" style="fill: none; stroke: #424242; stroke-width: 2.25; stroke-linecap: round"/>
   </g>
   <g id="line2d_38">
    <path clip-path="url(#pd688f973cd)" style="fill: none; stroke: #424242; stroke-width: 2.25; stroke-linecap: round"/>
   </g>
   <g id="line2d_39">
    <path clip-path="url(#pd688f973cd)" style="fill: none; stroke: #424242; stroke-width: 2.25; stroke-linecap: round"/>
   </g>
   <g id="line2d_40">
    <path clip-path="url(#pd688f973cd)" style="fill: none; stroke: #424242; stroke-width: 2.25; stroke-linecap: round"/>
   </g>
   <g id="line2d_41">
    <path clip-path="url(#pd688f973cd)" style="fill: none; stroke: #424242; stroke-width: 2.25; stroke-linecap: round"/>
   </g>
   <g id="line2d_42">
    <path clip-path="url(#pd688f973cd)" style="fill: none; stroke: #424242; stroke-width: 2.25; stroke-linecap: round"/>
   </g>
   <g id="line2d_43">
    <path clip-path="url(#pd688f973cd)" style="fill: none; stroke: #424242; stroke-width: 2.25; stroke-linecap: round"/>
   </g>
   <g id="line2d_44">
    <path clip-path="url(#pd688f973cd)" style="fill: none; stroke: #424242; stroke-width: 2.25; stroke-linecap: round"/>
   </g>
   <g id="line2d_45">
    <path clip-path="url(#pd688f973cd)" style="fill: none; stroke: #424242; stroke-width: 2.25; stroke-linecap: round"/>
   </g>
   <g id="line2d_46">
    <path clip-path="url(#pd688f973cd)" style="fill: none; stroke: #424242; stroke-width: 2.25; stroke-linecap: round"/>
   </g>
   <g id="line2d_47">
    <path clip-path="url(#pd688f973cd)" style="fill: none; stroke: #424242; stroke-width: 2.25; stroke-linecap: round"/>
   </g>
   <g id="line2d_48">
    <path clip-path="url(#pd688f973cd)" style="fill: none; stroke: #424242; stroke-width: 2.25; stroke-linecap: round"/>
   </g>
   <g id="line2d_49">
    <path clip-path="url(#pd688f973cd)" style="fill: none; stroke: #424242; stroke-width: 2.25; stroke-linecap: round"/>
   </g>
   <g id="line2d_50">
    <path clip-path="url(#pd688f973cd)" style="fill: none; stroke: #424242; stroke-width: 2.25; stroke-linecap: round"/>
   </g>
   <g id="line2d_51">
    <path clip-path="url(#pd688f973cd)" style="fill: none; stroke: #424242; stroke-width: 2.25; stroke-linecap: round"/>
   </g>
   <g id="line2d_52">
    <path clip-path="url(#pd688f973cd)" style="fill: none; stroke: #424242; stroke-width: 2.25; stroke-linecap: round"/>
   </g>
   <g id="line2d_53">
    <path clip-path="url(#pd688f973cd)" style="fill: none; stroke: #424242; stroke-width: 2.25; stroke-linecap: round"/>
   </g>
   <g id="line2d_54">
    <path clip-path="url(#pd688f973cd)" style="fill: none; stroke: #424242; stroke-width: 2.25; stroke-linecap: round"/>
   </g>
   <g id="line2d_55">
    <path clip-path="url(#pd688f973cd)" style="fill: none; stroke: #424242; stroke-width: 2.25; stroke-linecap: round"/>
   </g>
   <g id="line2d_56">
    <path clip-path="url(#pd688f973cd)" style="fill: none; stroke: #424242; stroke-width: 2.25; stroke-linecap: round"/>
   </g>
   <g id="line2d_57">
    <path clip-path="url(#pd688f973cd)" style="fill: none; stroke: #424242; stroke-width: 2.25; stroke-linecap: round"/>
   </g>
   <g id="line2d_58">
    <path clip-path="url(#pd688f973cd)" style="fill: none; stroke: #424242; stroke-width: 2.25; stroke-linecap: round"/>
   </g>
   <g id="line2d_59">
    <path clip-path="url(#pd688f973cd)" style="fill: none; stroke: #424242; stroke-width: 2.25; stroke-linecap: round"/>
   </g>
   <g id="patch_65">
    <path d="M 43.074375 385.730312
L 43.074375 23.391562
" style="fill: none; stroke: #cccccc; stroke-width: 0.8; stroke-linejoin: miter; stroke-linecap: square"/>
   </g>
   <g id="patch_66">
    <path d="M 574.544375 385.730312
L 574.544375 23.391562
" style="fill: none; stroke: #cccccc; stroke-width: 0.8; stroke-linejoin: miter; stroke-linecap: square"/>
   </g>
   <g id="patch_67">
    <path d="M 43.074375 385.730312
L 574.544375 385.730312
" style="fill: none; stroke: #cccccc; stroke-width: 0.8; stroke-linejoin: miter; stroke-linecap: square"/>
   </g>
   <g id="patch_68">
    <path d="M 43.074375 23.391562
L 574.544375 23.391562
" style="fill: none; stroke: #cccccc; stroke-width: 0.8; stroke-linejoin: miter; stroke-linecap: square"/>
   </g>
   <g id="text_16">
    <!-- Dataset GarciaAlonsoDataset (all_paths) -->
    <g style="fill: #262626" transform="translate(173.830781 17.391562) scale(0.14 -0.14)">
     <defs>
      <path id="Arial-BoldMT-44" d="M 463 4581
L 2153 4581
Q 2725 4581 3025 4494
Q 3428 4375 3715 4072
Q 4003 3769 4153 3330
Q 4303 2891 4303 2247
Q 4303 1681 4163 1272
Q 3991 772 3672 463
Q 3431 228 3022 97
Q 2716 0 2203 0
L 463 0
L 463 4581
z
M 1388 3806
L 1388 772
L 2078 772
Q 2466 772 2638 816
Q 2863 872 3011 1006
Q 3159 1141 3253 1448
Q 3347 1756 3347 2288
Q 3347 2819 3253 3103
Q 3159 3388 2990 3547
Q 2822 3706 2563 3763
Q 2369 3806 1803 3806
L 1388 3806
z
" transform="scale(0.015625)"/>
      <path id="Arial-BoldMT-61" d="M 1116 2306
L 319 2450
Q 453 2931 781 3162
Q 1109 3394 1756 3394
Q 2344 3394 2631 3255
Q 2919 3116 3036 2902
Q 3153 2688 3153 2116
L 3144 1091
Q 3144 653 3186 445
Q 3228 238 3344 0
L 2475 0
Q 2441 88 2391 259
Q 2369 338 2359 363
Q 2134 144 1878 34
Q 1622 -75 1331 -75
Q 819 -75 523 203
Q 228 481 228 906
Q 228 1188 362 1408
Q 497 1628 739 1745
Q 981 1863 1438 1950
Q 2053 2066 2291 2166
L 2291 2253
Q 2291 2506 2166 2614
Q 2041 2722 1694 2722
Q 1459 2722 1328 2630
Q 1197 2538 1116 2306
z
M 2291 1594
Q 2122 1538 1756 1459
Q 1391 1381 1278 1306
Q 1106 1184 1106 997
Q 1106 813 1243 678
Q 1381 544 1594 544
Q 1831 544 2047 700
Q 2206 819 2256 991
Q 2291 1103 2291 1419
L 2291 1594
z
" transform="scale(0.015625)"/>
      <path id="Arial-BoldMT-74" d="M 1981 3319
L 1981 2619
L 1381 2619
L 1381 1281
Q 1381 875 1398 808
Q 1416 741 1477 697
Q 1538 653 1625 653
Q 1747 653 1978 738
L 2053 56
Q 1747 -75 1359 -75
Q 1122 -75 931 4
Q 741 84 652 211
Q 563 338 528 553
Q 500 706 500 1172
L 500 2619
L 97 2619
L 97 3319
L 500 3319
L 500 3978
L 1381 4491
L 1381 3319
L 1981 3319
z
" transform="scale(0.015625)"/>
      <path id="Arial-BoldMT-73" d="M 150 947
L 1031 1081
Q 1088 825 1259 692
Q 1431 559 1741 559
Q 2081 559 2253 684
Q 2369 772 2369 919
Q 2369 1019 2306 1084
Q 2241 1147 2013 1200
Q 950 1434 666 1628
Q 272 1897 272 2375
Q 272 2806 612 3100
Q 953 3394 1669 3394
Q 2350 3394 2681 3172
Q 3013 2950 3138 2516
L 2309 2363
Q 2256 2556 2107 2659
Q 1959 2763 1684 2763
Q 1338 2763 1188 2666
Q 1088 2597 1088 2488
Q 1088 2394 1175 2328
Q 1294 2241 1995 2081
Q 2697 1922 2975 1691
Q 3250 1456 3250 1038
Q 3250 581 2869 253
Q 2488 -75 1741 -75
Q 1063 -75 667 200
Q 272 475 150 947
z
" transform="scale(0.015625)"/>
      <path id="Arial-BoldMT-65" d="M 2381 1056
L 3256 909
Q 3088 428 2723 176
Q 2359 -75 1813 -75
Q 947 -75 531 491
Q 203 944 203 1634
Q 203 2459 634 2926
Q 1066 3394 1725 3394
Q 2466 3394 2894 2905
Q 3322 2416 3303 1406
L 1103 1406
Q 1113 1016 1316 798
Q 1519 581 1822 581
Q 2028 581 2168 693
Q 2309 806 2381 1056
z
M 2431 1944
Q 2422 2325 2234 2523
Q 2047 2722 1778 2722
Q 1491 2722 1303 2513
Q 1116 2303 1119 1944
L 2431 1944
z
" transform="scale(0.015625)"/>
      <path id="Arial-BoldMT-20" transform="scale(0.015625)"/>
      <path id="Arial-BoldMT-47" d="M 2597 1684
L 2597 2456
L 4591 2456
L 4591 631
Q 4300 350 3748 136
Q 3197 -78 2631 -78
Q 1913 -78 1378 223
Q 844 525 575 1086
Q 306 1647 306 2306
Q 306 3022 606 3578
Q 906 4134 1484 4431
Q 1925 4659 2581 4659
Q 3434 4659 3914 4301
Q 4394 3944 4531 3313
L 3613 3141
Q 3516 3478 3248 3673
Q 2981 3869 2581 3869
Q 1975 3869 1617 3484
Q 1259 3100 1259 2344
Q 1259 1528 1621 1120
Q 1984 713 2572 713
Q 2863 713 3155 827
Q 3447 941 3656 1103
L 3656 1684
L 2597 1684
z
" transform="scale(0.015625)"/>
      <path id="Arial-BoldMT-72" d="M 1300 0
L 422 0
L 422 3319
L 1238 3319
L 1238 2847
Q 1447 3181 1614 3287
Q 1781 3394 1994 3394
Q 2294 3394 2572 3228
L 2300 2463
Q 2078 2606 1888 2606
Q 1703 2606 1575 2504
Q 1447 2403 1373 2137
Q 1300 1872 1300 1025
L 1300 0
z
" transform="scale(0.015625)"/>
      <path id="Arial-BoldMT-63" d="M 3353 2338
L 2488 2181
Q 2444 2441 2289 2572
Q 2134 2703 1888 2703
Q 1559 2703 1364 2476
Q 1169 2250 1169 1719
Q 1169 1128 1367 884
Q 1566 641 1900 641
Q 2150 641 2309 783
Q 2469 925 2534 1272
L 3397 1125
Q 3263 531 2881 228
Q 2500 -75 1859 -75
Q 1131 -75 698 384
Q 266 844 266 1656
Q 266 2478 700 2936
Q 1134 3394 1875 3394
Q 2481 3394 2839 3133
Q 3197 2872 3353 2338
z
" transform="scale(0.015625)"/>
      <path id="Arial-BoldMT-69" d="M 459 3769
L 459 4581
L 1338 4581
L 1338 3769
L 459 3769
z
M 459 0
L 459 3319
L 1338 3319
L 1338 0
L 459 0
z
" transform="scale(0.015625)"/>
      <path id="Arial-BoldMT-41" d="M 4597 0
L 3591 0
L 3191 1041
L 1359 1041
L 981 0
L 0 0
L 1784 4581
L 2763 4581
L 4597 0
z
M 2894 1813
L 2263 3513
L 1644 1813
L 2894 1813
z
" transform="scale(0.015625)"/>
      <path id="Arial-BoldMT-6c" d="M 459 0
L 459 4581
L 1338 4581
L 1338 0
L 459 0
z
" transform="scale(0.015625)"/>
      <path id="Arial-BoldMT-6f" d="M 256 1706
Q 256 2144 472 2553
Q 688 2963 1083 3178
Q 1478 3394 1966 3394
Q 2719 3394 3200 2905
Q 3681 2416 3681 1669
Q 3681 916 3195 420
Q 2709 -75 1972 -75
Q 1516 -75 1102 131
Q 688 338 472 736
Q 256 1134 256 1706
z
M 1156 1659
Q 1156 1166 1390 903
Q 1625 641 1969 641
Q 2313 641 2545 903
Q 2778 1166 2778 1666
Q 2778 2153 2545 2415
Q 2313 2678 1969 2678
Q 1625 2678 1390 2415
Q 1156 2153 1156 1659
z
" transform="scale(0.015625)"/>
      <path id="Arial-BoldMT-6e" d="M 3478 0
L 2600 0
L 2600 1694
Q 2600 2231 2544 2389
Q 2488 2547 2361 2634
Q 2234 2722 2056 2722
Q 1828 2722 1647 2597
Q 1466 2472 1398 2265
Q 1331 2059 1331 1503
L 1331 0
L 453 0
L 453 3319
L 1269 3319
L 1269 2831
Q 1703 3394 2363 3394
Q 2653 3394 2893 3289
Q 3134 3184 3257 3021
Q 3381 2859 3429 2653
Q 3478 2447 3478 2063
L 3478 0
z
" transform="scale(0.015625)"/>
      <path id="Arial-BoldMT-28" d="M 1916 -1347
L 1313 -1347
Q 834 -625 584 153
Q 334 931 334 1659
Q 334 2563 644 3369
Q 913 4069 1325 4659
L 1925 4659
Q 1497 3713 1336 3048
Q 1175 2384 1175 1641
Q 1175 1128 1270 590
Q 1366 53 1531 -431
Q 1641 -750 1916 -1347
z
" transform="scale(0.015625)"/>
      <path id="Arial-BoldMT-5f" d="M -59 -1266
L -59 -697
L 3591 -697
L 3591 -1266
L -59 -1266
z
" transform="scale(0.015625)"/>
      <path id="Arial-BoldMT-70" d="M 434 3319
L 1253 3319
L 1253 2831
Q 1413 3081 1684 3237
Q 1956 3394 2288 3394
Q 2866 3394 3269 2941
Q 3672 2488 3672 1678
Q 3672 847 3265 386
Q 2859 -75 2281 -75
Q 2006 -75 1782 34
Q 1559 144 1313 409
L 1313 -1263
L 434 -1263
L 434 3319
z
M 1303 1716
Q 1303 1156 1525 889
Q 1747 622 2066 622
Q 2372 622 2575 867
Q 2778 1113 2778 1672
Q 2778 2194 2568 2447
Q 2359 2700 2050 2700
Q 1728 2700 1515 2451
Q 1303 2203 1303 1716
z
" transform="scale(0.015625)"/>
      <path id="Arial-BoldMT-68" d="M 1334 4581
L 1334 2897
Q 1759 3394 2350 3394
Q 2653 3394 2897 3281
Q 3141 3169 3264 2994
Q 3388 2819 3433 2606
Q 3478 2394 3478 1947
L 3478 0
L 2600 0
L 2600 1753
Q 2600 2275 2550 2415
Q 2500 2556 2373 2639
Q 2247 2722 2056 2722
Q 1838 2722 1666 2615
Q 1494 2509 1414 2295
Q 1334 2081 1334 1663
L 1334 0
L 456 0
L 456 4581
L 1334 4581
z
" transform="scale(0.015625)"/>
      <path id="Arial-BoldMT-29" d="M 216 -1347
Q 475 -791 581 -494
Q 688 -197 778 190
Q 869 578 912 926
Q 956 1275 956 1641
Q 956 2384 797 3048
Q 638 3713 209 4659
L 806 4659
Q 1278 3988 1539 3234
Q 1800 2481 1800 1706
Q 1800 1053 1594 306
Q 1359 -531 822 -1347
L 216 -1347
z
" transform="scale(0.015625)"/>
     </defs>
     <use xlink:href="#Arial-BoldMT-44"/>
     <use xlink:href="#Arial-BoldMT-61" transform="translate(72.216797 0)"/>
     <use xlink:href="#Arial-BoldMT-74" transform="translate(127.832031 0)"/>
     <use xlink:href="#Arial-BoldMT-61" transform="translate(161.132812 0)"/>
     <use xlink:href="#Arial-BoldMT-73" transform="translate(216.748047 0)"/>
     <use xlink:href="#Arial-BoldMT-65" transform="translate(272.363281 0)"/>
     <use xlink:href="#Arial-BoldMT-74" transform="translate(327.978516 0)"/>
     <use xlink:href="#Arial-BoldMT-20" transform="translate(361.279297 0)"/>
     <use xlink:href="#Arial-BoldMT-47" transform="translate(389.0625 0)"/>
     <use xlink:href="#Arial-BoldMT-61" transform="translate(466.845703 0)"/>
     <use xlink:href="#Arial-BoldMT-72" transform="translate(522.460938 0)"/>
     <use xlink:href="#Arial-BoldMT-63" transform="translate(561.376953 0)"/>
     <use xlink:href="#Arial-BoldMT-69" transform="translate(616.992188 0)"/>
     <use xlink:href="#Arial-BoldMT-61" transform="translate(644.775391 0)"/>
     <use xlink:href="#Arial-BoldMT-41" transform="translate(700.390625 0)"/>
     <use xlink:href="#Arial-BoldMT-6c" transform="translate(772.607422 0)"/>
     <use xlink:href="#Arial-BoldMT-6f" transform="translate(800.390625 0)"/>
     <use xlink:href="#Arial-BoldMT-6e" transform="translate(861.474609 0)"/>
     <use xlink:href="#Arial-BoldMT-73" transform="translate(922.558594 0)"/>
     <use xlink:href="#Arial-BoldMT-6f" transform="translate(978.173828 0)"/>
     <use xlink:href="#Arial-BoldMT-44" transform="translate(1039.257812 0)"/>
     <use xlink:href="#Arial-BoldMT-61" transform="translate(1111.474609 0)"/>
     <use xlink:href="#Arial-BoldMT-74" transform="translate(1167.089844 0)"/>
     <use xlink:href="#Arial-BoldMT-61" transform="translate(1200.390625 0)"/>
     <use xlink:href="#Arial-BoldMT-73" transform="translate(1256.005859 0)"/>
     <use xlink:href="#Arial-BoldMT-65" transform="translate(1311.621094 0)"/>
     <use xlink:href="#Arial-BoldMT-74" transform="translate(1367.236328 0)"/>
     <use xlink:href="#Arial-BoldMT-20" transform="translate(1400.537109 0)"/>
     <use xlink:href="#Arial-BoldMT-28" transform="translate(1428.320312 0)"/>
     <use xlink:href="#Arial-BoldMT-61" transform="translate(1461.621094 0)"/>
     <use xlink:href="#Arial-BoldMT-6c" transform="translate(1517.236328 0)"/>
     <use xlink:href="#Arial-BoldMT-6c" transform="translate(1545.019531 0)"/>
     <use xlink:href="#Arial-BoldMT-5f" transform="translate(1572.802734 0)"/>
     <use xlink:href="#Arial-BoldMT-70" transform="translate(1628.417969 0)"/>
     <use xlink:href="#Arial-BoldMT-61" transform="translate(1689.501953 0)"/>
     <use xlink:href="#Arial-BoldMT-74" transform="translate(1745.117188 0)"/>
     <use xlink:href="#Arial-BoldMT-68" transform="translate(1778.417969 0)"/>
     <use xlink:href="#Arial-BoldMT-73" transform="translate(1839.501953 0)"/>
     <use xlink:href="#Arial-BoldMT-29" transform="translate(1895.117188 0)"/>
    </g>
   </g>
   <g id="legend_1">
    <g id="patch_69">
     <path d="M 608.117875 172.844687
L 702.36475 172.844687
Q 704.36475 172.844687 704.36475 170.844687
L 704.36475 30.391562
Q 704.36475 28.391562 702.36475 28.391562
L 608.117875 28.391562
Q 606.117875 28.391562 606.117875 30.391562
L 606.117875 170.844687
Q 606.117875 172.844687 608.117875 172.844687
z
" style="fill: #ffffff; opacity: 0.8; stroke: #cccccc; stroke-linejoin: miter"/>
    </g>
    <g id="text_17">
     <!-- Method -->
     <g style="fill: #262626" transform="translate(638.565531 39.549375) scale(0.1 -0.1)">
      <use xlink:href="#ArialMT-4d"/>
      <use xlink:href="#ArialMT-65" transform="translate(83.300781 0)"/>
      <use xlink:href="#ArialMT-74" transform="translate(138.916016 0)"/>
      <use xlink:href="#ArialMT-68" transform="translate(166.699219 0)"/>
      <use xlink:href="#ArialMT-6f" transform="translate(222.314453 0)"/>
      <use xlink:href="#ArialMT-64" transform="translate(277.929688 0)"/>
     </g>
    </g>
    <g id="patch_70">
     <path d="M 610.117875 53.694687
L 630.117875 53.694687
L 630.117875 46.694687
L 610.117875 46.694687
z
" style="fill: #3274a1; stroke: #ffffff; stroke-linejoin: miter"/>
    </g>
    <g id="text_18">
     <!-- CellMNN -->
     <g style="fill: #262626" transform="translate(638.117875 53.694687) scale(0.1 -0.1)">
      <use xlink:href="#ArialMT-43"/>
      <use xlink:href="#ArialMT-65" transform="translate(72.216797 0)"/>
      <use xlink:href="#ArialMT-6c" transform="translate(127.832031 0)"/>
      <use xlink:href="#ArialMT-6c" transform="translate(150.048828 0)"/>
      <use xlink:href="#ArialMT-4d" transform="translate(172.265625 0)"/>
      <use xlink:href="#ArialMT-4e" transform="translate(255.566406 0)"/>
      <use xlink:href="#ArialMT-4e" transform="translate(327.783203 0)"/>
     </g>
    </g>
    <g id="patch_71">
     <path d="M 610.117875 67.84
L 630.117875 67.84
L 630.117875 60.84
L 610.117875 60.84
z
" style="fill: #e1812c; stroke: #ffffff; stroke-linejoin: miter"/>
    </g>
    <g id="text_19">
     <!-- Cooccurrence -->
     <g style="fill: #262626" transform="translate(638.117875 67.84) scale(0.1 -0.1)">
      <defs>
       <path id="ArialMT-6e" d="M 422 0
L 422 3319
L 928 3319
L 928 2847
Q 1294 3394 1984 3394
Q 2284 3394 2536 3286
Q 2788 3178 2913 3003
Q 3038 2828 3088 2588
Q 3119 2431 3119 2041
L 3119 0
L 2556 0
L 2556 2019
Q 2556 2363 2490 2533
Q 2425 2703 2258 2804
Q 2091 2906 1866 2906
Q 1506 2906 1245 2678
Q 984 2450 984 1813
L 984 0
L 422 0
z
" transform="scale(0.015625)"/>
      </defs>
      <use xlink:href="#ArialMT-43"/>
      <use xlink:href="#ArialMT-6f" transform="translate(72.216797 0)"/>
      <use xlink:href="#ArialMT-6f" transform="translate(127.832031 0)"/>
      <use xlink:href="#ArialMT-63" transform="translate(183.447266 0)"/>
      <use xlink:href="#ArialMT-63" transform="translate(233.447266 0)"/>
      <use xlink:href="#ArialMT-75" transform="translate(283.447266 0)"/>
      <use xlink:href="#ArialMT-72" transform="translate(339.0625 0)"/>
      <use xlink:href="#ArialMT-72" transform="translate(372.363281 0)"/>
      <use xlink:href="#ArialMT-65" transform="translate(405.664062 0)"/>
      <use xlink:href="#ArialMT-6e" transform="translate(461.279297 0)"/>
      <use xlink:href="#ArialMT-63" transform="translate(516.894531 0)"/>
      <use xlink:href="#ArialMT-65" transform="translate(566.894531 0)"/>
     </g>
    </g>
    <g id="patch_72">
     <path d="M 610.117875 81.985312
L 630.117875 81.985312
L 630.117875 74.985312
L 610.117875 74.985312
z
" style="fill: #3a923a; stroke: #ffffff; stroke-linejoin: miter"/>
    </g>
    <g id="text_20">
     <!-- MIOFlow -->
     <g style="fill: #262626" transform="translate(638.117875 81.985312) scale(0.1 -0.1)">
      <defs>
       <path id="ArialMT-77" d="M 1034 0
L 19 3319
L 600 3319
L 1128 1403
L 1325 691
Q 1338 744 1497 1375
L 2025 3319
L 2603 3319
L 3100 1394
L 3266 759
L 3456 1400
L 4025 3319
L 4572 3319
L 3534 0
L 2950 0
L 2422 1988
L 2294 2553
L 1622 0
L 1034 0
z
" transform="scale(0.015625)"/>
      </defs>
      <use xlink:href="#ArialMT-4d"/>
      <use xlink:href="#ArialMT-49" transform="translate(83.300781 0)"/>
      <use xlink:href="#ArialMT-4f" transform="translate(111.083984 0)"/>
      <use xlink:href="#ArialMT-46" transform="translate(188.867188 0)"/>
      <use xlink:href="#ArialMT-6c" transform="translate(249.951172 0)"/>
      <use xlink:href="#ArialMT-6f" transform="translate(272.167969 0)"/>
      <use xlink:href="#ArialMT-77" transform="translate(327.783203 0)"/>
     </g>
    </g>
    <g id="patch_73">
     <path d="M 610.117875 96.130625
L 630.117875 96.130625
L 630.117875 89.130625
L 610.117875 89.130625
z
" style="fill: #c03d3e; stroke: #ffffff; stroke-linejoin: miter"/>
    </g>
    <g id="text_21">
     <!-- Moscot -->
     <g style="fill: #262626" transform="translate(638.117875 96.130625) scale(0.1 -0.1)">
      <use xlink:href="#ArialMT-4d"/>
      <use xlink:href="#ArialMT-6f" transform="translate(83.300781 0)"/>
      <use xlink:href="#ArialMT-73" transform="translate(138.916016 0)"/>
      <use xlink:href="#ArialMT-63" transform="translate(188.916016 0)"/>
      <use xlink:href="#ArialMT-6f" transform="translate(238.916016 0)"/>
      <use xlink:href="#ArialMT-74" transform="translate(294.53125 0)"/>
     </g>
    </g>
    <g id="patch_74">
     <path d="M 610.117875 110.275937
L 630.117875 110.275937
L 630.117875 103.275937
L 610.117875 103.275937
z
" style="fill: #9372b2; stroke: #ffffff; stroke-linejoin: miter"/>
    </g>
    <g id="text_22">
     <!-- PISDE -->
     <g style="fill: #262626" transform="translate(638.117875 110.275937) scale(0.1 -0.1)">
      <defs>
       <path id="ArialMT-44" d="M 494 0
L 494 4581
L 2072 4581
Q 2606 4581 2888 4516
Q 3281 4425 3559 4188
Q 3922 3881 4101 3404
Q 4281 2928 4281 2316
Q 4281 1794 4159 1391
Q 4038 988 3847 723
Q 3656 459 3429 307
Q 3203 156 2883 78
Q 2563 0 2147 0
L 494 0
z
M 1100 541
L 2078 541
Q 2531 541 2789 625
Q 3047 709 3200 863
Q 3416 1078 3536 1442
Q 3656 1806 3656 2325
Q 3656 3044 3420 3430
Q 3184 3816 2847 3947
Q 2603 4041 2063 4041
L 1100 4041
L 1100 541
z
" transform="scale(0.015625)"/>
      </defs>
      <use xlink:href="#ArialMT-50"/>
      <use xlink:href="#ArialMT-49" transform="translate(66.699219 0)"/>
      <use xlink:href="#ArialMT-53" transform="translate(94.482422 0)"/>
      <use xlink:href="#ArialMT-44" transform="translate(161.181641 0)"/>
      <use xlink:href="#ArialMT-45" transform="translate(233.398438 0)"/>
     </g>
    </g>
    <g id="patch_75">
     <path d="M 610.117875 124.42125
L 630.117875 124.42125
L 630.117875 117.42125
L 610.117875 117.42125
z
" style="fill: #845b53; stroke: #ffffff; stroke-linejoin: miter"/>
    </g>
    <g id="text_23">
     <!-- PRESCIENT -->
     <g style="fill: #262626" transform="translate(638.117875 124.42125) scale(0.1 -0.1)">
      <use xlink:href="#ArialMT-50"/>
      <use xlink:href="#ArialMT-52" transform="translate(66.699219 0)"/>
      <use xlink:href="#ArialMT-45" transform="translate(138.916016 0)"/>
      <use xlink:href="#ArialMT-53" transform="translate(205.615234 0)"/>
      <use xlink:href="#ArialMT-43" transform="translate(272.314453 0)"/>
      <use xlink:href="#ArialMT-49" transform="translate(344.53125 0)"/>
      <use xlink:href="#ArialMT-45" transform="translate(372.314453 0)"/>
      <use xlink:href="#ArialMT-4e" transform="translate(439.013672 0)"/>
      <use xlink:href="#ArialMT-54" transform="translate(511.230469 0)"/>
     </g>
    </g>
    <g id="patch_76">
     <path d="M 610.117875 138.566562
L 630.117875 138.566562
L 630.117875 131.566562
L 610.117875 131.566562
z
" style="fill: #d684bd; stroke: #ffffff; stroke-linejoin: miter"/>
    </g>
    <g id="text_24">
     <!-- WOT -->
     <g style="fill: #262626" transform="translate(638.117875 138.566562) scale(0.1 -0.1)">
      <defs>
       <path id="ArialMT-57" d="M 1294 0
L 78 4581
L 700 4581
L 1397 1578
Q 1509 1106 1591 641
Q 1766 1375 1797 1488
L 2669 4581
L 3400 4581
L 4056 2263
Q 4303 1400 4413 641
Q 4500 1075 4641 1638
L 5359 4581
L 5969 4581
L 4713 0
L 4128 0
L 3163 3491
Q 3041 3928 3019 4028
Q 2947 3713 2884 3491
L 1913 0
L 1294 0
z
" transform="scale(0.015625)"/>
      </defs>
      <use xlink:href="#ArialMT-57"/>
      <use xlink:href="#ArialMT-4f" transform="translate(94.384766 0)"/>
      <use xlink:href="#ArialMT-54" transform="translate(172.167969 0)"/>
     </g>
    </g>
    <g id="patch_77">
     <path d="M 610.117875 152.711875
L 630.117875 152.711875
L 630.117875 145.711875
L 610.117875 145.711875
z
" style="fill: #7f7f7f; stroke: #ffffff; stroke-linejoin: miter"/>
    </g>
    <g id="text_25">
     <!-- scIMF -->
     <g style="fill: #262626" transform="translate(638.117875 152.711875) scale(0.1 -0.1)">
      <use xlink:href="#ArialMT-73"/>
      <use xlink:href="#ArialMT-63" transform="translate(50 0)"/>
      <use xlink:href="#ArialMT-49" transform="translate(100 0)"/>
      <use xlink:href="#ArialMT-4d" transform="translate(127.783203 0)"/>
      <use xlink:href="#ArialMT-46" transform="translate(211.083984 0)"/>
     </g>
    </g>
    <g id="patch_78">
     <path d="M 610.117875 166.857187
L 630.117875 166.857187
L 630.117875 159.857187
L 610.117875 159.857187
z
" style="fill: #a9aa35; stroke: #ffffff; stroke-linejoin: miter"/>
    </g>
    <g id="text_26">
     <!-- scNODE -->
     <g style="fill: #262626" transform="translate(638.117875 166.857187) scale(0.1 -0.1)">
      <use xlink:href="#ArialMT-73"/>
      <use xlink:href="#ArialMT-63" transform="translate(50 0)"/>
      <use xlink:href="#ArialMT-4e" transform="translate(100 0)"/>
      <use xlink:href="#ArialMT-4f" transform="translate(172.216797 0)"/>
      <use xlink:href="#ArialMT-44" transform="translate(250 0)"/>
      <use xlink:href="#ArialMT-45" transform="translate(322.216797 0)"/>
     </g>
    </g>
   </g>
  </g>
 </g>
 <defs>
  <clipPath id="pd688f973cd">
   <rect x="43.074375" y="23.391562" width="531.47" height="362.33875"/>
  </clipPath>
 </defs>
</svg>
